<svg width="37" height="27" viewBox="0 0 37 27" fill="none" xmlns="http://www.w3.org/2000/svg">
<path id="Vector" d="M0 24.1071C0 25.7042 1.38108 27 3.08333 27H33.9167C35.6189 27 37 25.7042 37 24.1071V13.5H0V24.1071ZM12.3333 20.0089C12.3333 19.6112 12.6802 19.2857 13.1042 19.2857H21.8403C22.2642 19.2857 22.6111 19.6112 22.6111 20.0089V22.4196C22.6111 22.8174 22.2642 23.1429 21.8403 23.1429H13.1042C12.6802 23.1429 12.3333 22.8174 12.3333 22.4196V20.0089ZM4.11111 20.0089C4.11111 19.6112 4.45799 19.2857 4.88194 19.2857H9.50694C9.9309 19.2857 10.2778 19.6112 10.2778 20.0089V22.4196C10.2778 22.8174 9.9309 23.1429 9.50694 23.1429H4.88194C4.45799 23.1429 4.11111 22.8174 4.11111 22.4196V20.0089ZM37 2.89286V5.78571H0V2.89286C0 1.29576 1.38108 0 3.08333 0H33.9167C35.6189 0 37 1.29576 37 2.89286Z" fill="#8F0D25"/>
</svg>
