<svg width="45" height="24" viewBox="0 0 45 24" fill="none" xmlns="http://www.w3.org/2000/svg">
<path id="Vector" d="M24.75 14H23.625V8.5C23.625 8.22375 23.3733 8 23.0625 8H22.1077C21.7744 8 21.4488 8.0875 21.1718 8.25187L20.0939 8.89062C20.0324 8.92701 19.9796 8.9738 19.9385 9.02833C19.8974 9.08286 19.8688 9.14406 19.8543 9.20843C19.8398 9.2728 19.8397 9.33908 19.854 9.40348C19.8684 9.46788 19.8968 9.52914 19.9378 9.58375L20.5622 10.4156C20.6031 10.4703 20.6558 10.5172 20.7171 10.5538C20.7785 10.5903 20.8473 10.6158 20.9197 10.6286C20.9921 10.6415 21.0667 10.6416 21.1392 10.6289C21.2116 10.6161 21.2805 10.5908 21.342 10.5544L21.375 10.535V14H20.25C19.9392 14 19.6875 14.2238 19.6875 14.5V15.5C19.6875 15.7762 19.9392 16 20.25 16H24.75C25.0608 16 25.3125 15.7762 25.3125 15.5V14.5C25.3125 14.2238 25.0608 14 24.75 14ZM42.75 0H2.25C1.00758 0 0 0.895625 0 2V22C0 23.1044 1.00758 24 2.25 24H42.75C43.9924 24 45 23.1044 45 22V2C45 0.895625 43.9924 0 42.75 0ZM3.375 21V17C5.86055 17 7.875 18.7906 7.875 21H3.375ZM3.375 7V3H7.875C7.875 5.20937 5.86055 7 3.375 7ZM22.5 19C18.772 19 15.75 15.8656 15.75 12C15.75 8.13375 18.772 5 22.5 5C26.228 5 29.25 8.13375 29.25 12C29.25 15.8669 26.2266 19 22.5 19ZM41.625 21H37.125C37.125 18.7906 39.1395 17 41.625 17V21ZM41.625 7C39.1395 7 37.125 5.20937 37.125 3H41.625V7Z" fill="#8F0D25"/>
</svg>
