<svg width="31" height="32" viewBox="0 0 31 32" fill="none" xmlns="http://www.w3.org/2000/svg">
<path id="Vector" d="M27.6786 0H3.32143C1.48772 0 0 1.53571 0 3.42857V28.5714C0 30.4643 1.48772 32 3.32143 32H27.6786C29.5123 32 31 30.4643 31 28.5714V3.42857C31 1.53571 29.5123 0 27.6786 0ZM25.4643 18C25.4643 18.4714 25.0906 18.8571 24.6339 18.8571H18.2679V25.4286C18.2679 25.9 17.8942 26.2857 17.4375 26.2857H13.5625C13.1058 26.2857 12.7321 25.9 12.7321 25.4286V18.8571H6.36607C5.90937 18.8571 5.53571 18.4714 5.53571 18V14C5.53571 13.5286 5.90937 13.1429 6.36607 13.1429H12.7321V6.57143C12.7321 6.1 13.1058 5.71429 13.5625 5.71429H17.4375C17.8942 5.71429 18.2679 6.1 18.2679 6.57143V13.1429H24.6339C25.0906 13.1429 25.4643 13.5286 25.4643 14V18Z" fill="#31241E"/>
</svg>
