<svg width="31" height="32" viewBox="0 0 31 32" fill="none" xmlns="http://www.w3.org/2000/svg">
<path id="Vector" d="M27.6786 0H3.32143C1.48772 0 0 1.53571 0 3.42857V28.5714C0 30.4643 1.48772 32 3.32143 32H27.6786C29.5123 32 31 30.4643 31 28.5714V3.42857C31 1.53571 29.5123 0 27.6786 0ZM6.36607 18.8571C5.90937 18.8571 5.53571 18.4714 5.53571 18V14C5.53571 13.5286 5.90937 13.1429 6.36607 13.1429H24.6339C25.0906 13.1429 25.4643 13.5286 25.4643 14V18C25.4643 18.4714 25.0906 18.8571 24.6339 18.8571H6.36607Z" fill="#7B6960"/>
</svg>
